<svg xmlns="http://www.w3.org/2000/svg" width="16" height="16" viewBox="0 0 16 16"><defs><style>.a{fill:none;}.b{fill:#0180ff;}</style></defs><path class="a" d="M0,0H16V16H0Z"/><path class="b" d="M14.878,7.381,12.709,9.55a.389.389,0,0,0,.272.669h1.391a4.668,4.668,0,0,1-4.664,4.664,4.526,4.526,0,0,1-1.749-.342.747.747,0,0,0-.808.179.779.779,0,0,0,.264,1.275,6.085,6.085,0,0,0,2.293.443,6.217,6.217,0,0,0,6.219-6.219h1.391a.385.385,0,0,0,.272-.661L15.422,7.389a.382.382,0,0,0-.544-.008ZM5.044,10.219A4.668,4.668,0,0,1,9.708,5.555a4.526,4.526,0,0,1,1.749.342.747.747,0,0,0,.808-.179A.779.779,0,0,0,12,4.443,6.085,6.085,0,0,0,9.708,4,6.217,6.217,0,0,0,3.49,10.219H2.1a.385.385,0,0,0-.272.661L4,13.048a.385.385,0,0,0,.552,0l2.169-2.169a.389.389,0,0,0-.28-.661Z" transform="translate(-1.708 -2.219)"/></svg>