<svg xmlns="http://www.w3.org/2000/svg" width="16.003" height="16.003" viewBox="0 0 16.003 16.003"><defs><style>.a{fill:none;}.b{fill:#fff;}</style></defs><path class="a" d="M0,0H16V16H0Z"/><path class="b" d="M15.808,10.786A6.323,6.323,0,0,0,15.863,10a6.323,6.323,0,0,0-.055-.784L17.473,7.9a.408.408,0,0,0,.095-.512L15.99,4.616a.394.394,0,0,0-.481-.176l-1.964.8a5.745,5.745,0,0,0-1.333-.784l-.3-2.12A.386.386,0,0,0,11.524,2H8.369a.386.386,0,0,0-.387.336l-.3,2.12a6.041,6.041,0,0,0-1.333.784l-1.964-.8a.382.382,0,0,0-.481.176L2.325,7.385A.4.4,0,0,0,2.42,7.9l1.665,1.32A6.434,6.434,0,0,0,4.029,10a6.434,6.434,0,0,0,.055.784L2.42,12.106a.408.408,0,0,0-.095.512L3.9,15.386a.394.394,0,0,0,.481.176l1.964-.8a5.745,5.745,0,0,0,1.333.784l.3,2.12A.386.386,0,0,0,8.369,18h3.156a.386.386,0,0,0,.387-.336l.3-2.12a6.041,6.041,0,0,0,1.333-.784l1.964.8a.382.382,0,0,0,.481-.176l1.578-2.769a.408.408,0,0,0-.095-.512ZM9.946,12.8A2.8,2.8,0,1,1,12.708,10,2.784,2.784,0,0,1,9.946,12.8Z" transform="translate(-1.945 -2)"/></svg>